<svg version="1" xmlns="http://www.w3.org/2000/svg" width="682.667" height="682.667" viewBox="0 0 512.000000 512.000000"><path d="M0 256v256h512V0H0v256zM283.8 77.5c.5 5.3-.5 8.3-2.8 9-1.2.4-2.2 1.9-2.6 4.2-.4 2-1.7 5.2-3 7.1-1.3 1.9-2.4 3.9-2.4 4.3 0 1.2 3.1 1.7 13 2.3 5.8.3 10.6 1.2 15.2 3 3.7 1.4 11.1 3.2 16.6 4 8.8 1.3 10.5 1.3 15.3 0 3-.9 7.5-1.9 10.1-2.4 2.5-.5 6-1.6 7.7-2.4 1.7-.9 4.3-1.5 5.8-1.4 1.6.1 3.9-.2 5.3-.6 12-3.6 28.7-9 29.5-9.6.6-.4 3-1.4 5.5-2.2 2.5-.8 7.2-3.4 10.4-5.7 6.5-4.5 8.2-5 9-2.4.5 1.5-.1 7.5-.7 7.9-3.1 2.1-15.9 11.4-17.9 13-1.5 1.2-3.2 2.4-3.7 2.6-.7.2-.7 1.7-.1 4.2 1.6 7.2-2.2 11.2-12.6 13.6-11.2 2.5-14.3 3.4-23.4 6.1-11.7 3.6-22.1 3.9-26 .9-3.7-2.9-6.4-2.6-5.8.5.6 2.8-3.3 6.8-13.6 14-3.2 2.2-8.3 6.5-11.4 9.7-7.1 7.2-12.2 9.3-27.7 11.3-6.6.9-14.2 2-17 2.4-6 1.1-17.9-.2-26.7-2.8-3.5-1.1-8.1-2.2-10.3-2.6-2.2-.4-4.7-1.3-5.5-2-.9-.8-3.1-1.4-5-1.3-1.9 0-5.3-.6-7.6-1.5-4.2-1.6-18.6-2.4-21.7-1.2-.9.4-2.7.5-3.9.2-1.2-.4-4.9.5-8.5 1.9-3.5 1.4-7.1 2.4-8 2.2-2.4-.4-5.4-6.1-11.2-20.8-7.6-19.5-7.6-20-.2-25 2.4-1.5 4.8-3.8 5.5-5.1.6-1.3 3.6-3.6 6.6-5.1 10.9-5.5 11.7-5.6 48.3-5 26.8.4 33.7.2 33.7-.8 0-.8-.9-1.1-2.5-.8-1.3.3-2.2.1-1.9-.3.3-.5 1.2-.9 1.9-.9 2.3 0 18.5-8.8 22.2-12.1 3.6-3.1 4-3.2 8.9-2.9 4 .2 5.3-1.7 2.2-2.9-1.3-.6-1.8-1-1.2-1 .6-.1 3-1.9 5.2-4.2 2.3-2.2 4.8-3.9 5.5-3.7.6.3 1.3 2.2 1.5 4.3zm123.2 40c0 2-5 3.2-6 1.4-1.3-1.9-.2-2.9 3.1-2.9 1.9 0 2.9.5 2.9 1.5zm17.5 8.5c.4.6.2 1.7-.4 2.4-.6.7-.8 1.5-.5 1.9.3.3-.7 1.2-2.4 2.1-3.4 1.8-18.1 2.6-18.3 1.1-.2-1.8 4.7-4.6 8.9-5.2 2.3-.3 4.7-1.2 5.3-1.9 1.3-1.6 6.5-1.9 7.4-.4zm-295.1 20.2c2.4 5.1 5.9 11.8 7.8 14.8 3.8 5.9 5.8 11 5.8 14.5 0 2.4-4.6 7-9.9 9.8-1.9 1-4.1 2.7-5 3.7-2.4 2.7-20.9 15-22.6 15-.8 0-1.5.9-1.5 2 0 1.3-.7 2-1.8 2s-2.7.9-3.7 2-2.2 2-2.7 2c-1.3 0-4.7 4.2-4.8 5.7 0 .7-.7 1.3-1.5 1.3-1.6 0-5.5 3.4-5.5 4.9 0 .5-1.3 1.1-3 1.4-1.6.4-3.9 1.6-5.1 2.8-1.7 1.7-2.3 1.9-3 .8-.6-1-.9-.6-.9 1.3s-.7 2.9-2.2 3.4c-1.3.4-2.5.6-2.7.5-.2-.2-.8.4-1.3 1.3S63.6 237 62 237c-2.3 0-3 .5-3 1.9 0 1.3-.7 1.8-2.3 1.8-1.3 0-3.5 1.2-5 2.7-4 4-5 3.6-11.7-4.3-1.1-1.3-2-3.8-2-5.6 0-1.7-.5-3.6-1.1-4.2-2.7-2.7-.2-19.4 2.8-18.6.4.2.8 0 .9-.5.2-1.9 2.3-5.9 3.8-7.1.9-.7 1.6-1.8 1.6-2.3 0-2 8.2-14.9 9.3-14.5 1.2.4 10.7-8.6 10.7-10.2 0-.6.5-1.1 1-1.1.6 0 1.8-.8 2.8-1.8 1-.9 2.6-2.2 3.4-2.7.9-.6 4.9-3.8 8.9-7.2 4.1-3.4 8.5-6.8 9.9-7.5 1.4-.7 6.1-3.7 10.5-6.7 22.6-15.6 21.1-15.4 26.9-2.9zm220.4 29.6c4 5.9 7.7 16.2 9.2 25.7 1.4 8.2 1.4 44.1.1 111.5-.5 25.6-.9 47.4-.8 48.5 0 1.1 0 15.6-.1 32.1l-.2 30.1-4.3 1.7c-2.4.9-5.7 3-7.2 4.6-1.8 1.9-4.3 3.3-6.7 3.6-2.1.4-3.8 1.1-3.8 1.6s-1 .8-2.2.6c-1.6-.2-2.2.2-2 1.3.2 1.7-3.6 4.2-5.8 3.7-.7-.2-1.9.7-2.5 1.9-.7 1.3-1.5 2-1.8 1.6-1.3-1.2-.7-4.6 1.1-6 1.5-1.2.8-1.3-5.3-.7-6.1.5-9.4 1.6-15.5 5.3-.8.5-9.3 1.6-18.7 2.3-9.5.8-17.6 1.8-18 2.1-.3.4.2 1.4 1.3 2.2 1.8 1.4 1.5 1.5-3.1 1.3-4.8-.3-4.9-.4-5.6-3.8-.4-1.9-1-21.3-1.3-43-.4-21.7-1.1-53-1.6-69.5-1.4-45.5-2.4-116.8-1.7-119.7 1.3-5 12.2-6.2 13.1-1.4.2 1.1.9 5.4 1.5 9.4 2.1 13.7 10.8 27.5 20.4 32.1 5.4 2.6 7.5 2.8 5.6.5-1.3-1.5-1.9-5.9-1.2-8.1.7-1.7 3.2-2.5 9.3-3 3-.2 5.7-.8 5.8-1.3.6-1.7 2-1.1 1.8.7 0 1.1.6 1.8 1.7 1.8 1 0 2.4.8 3.1 1.8.7.9 1.8 1.7 2.4 1.7.6 0 .8 1.5.5 4-.5 3.3-.3 4 1.1 4 4.5 0 13.7-7.5 18.8-15.4 5.7-8.9 8.2-18 8.2-30.1.1-10.8-.6-13.7-6.1-25.3-1.9-4.1-3.3-7.5-3.1-7.7 1.3-1.3 9.4-7.5 9.8-7.5.3 0 2 2.2 3.8 4.8zm18.9 60.7c-.4 2.5-.2 3.5.7 3.5 1.5 0 4.6 7.3 4.6 10.7 0 1.1.7 2.6 1.5 3.3.8.7 1.5 2.2 1.5 3.4 0 1.1.9 3.9 1.9 6.1 3.7 8.2.3 18.5-6.1 18.5-1.6 0-4.2-.7-5.9-1.5-2.9-1.5-2.9-1.6-2.4-8.3.3-3.7.7-13.7.9-22.2.1-11.4.5-15.4 1.4-15.3.7.2 1.2-.2 1.2-.7 0-.6.3-1 .6-1 .4 0 .4 1.6.1 3.5zm-53.1 208.6c.3.6 1.5.9 2.5.6 1-.3 2.1-.1 2.4.4.3.4 1.2.6 2 .3.9-.4 1.8.1 2.1 1.1.8 2-1.4 6.5-3.2 6.5-.6 0-1.5.7-1.8 1.6-.4 1-1.4 1.4-2.5 1.1-1-.2-2.5-.1-3.2.4-.8.4-1.9.3-2.6-.3-.9-.7-2.2-.6-4.7.6-4.2 2-5.6 2-5.6.1 0-1.7-1.6-2-2.5-.5-1.3 2.2-7.4-1.5-7.4-4.5 0-1.3 6.9-4.5 9.6-4.5 1.1 0 2.6.7 3.3 1.5.7.8 1.6 1.2 2.2.9.5-.3 1.5-.1 2.3.6 1.7 1.4 3.3-.6 1.6-2.3-.8-.8-.6-1.6.6-2.9 1.8-2 3.9-2.3 4.9-.7zm-38.9 5.3c-.5 1.5-3.7 2-4.9.8-.6-.6-.8-1.5-.4-2 .8-1.3 5.8-.2 5.3 1.2z"/><path d="M259.8 266.6c-.5.4-.8 11-.8 23.6V313h95v-46h-43.2c-23.8 0-44.9-.3-46.8-.6-1.9-.3-3.8-.2-4.2.2zM279 289v11h-6v-8c0-7.9 0-8-2.5-8s-2.5.1-2.5 8.1v8l-3.2-.3-3.3-.3-.3-9.4c-.1-5.2-.1-10 .2-10.8.4-.9 2.9-1.3 9.1-1.3h8.5v11zm14.5-4.4c2.6 1 4.8 6.2 4 10-1.1 6-7.8 8.4-12.6 4.5-1.9-1.5-2.4-2.9-2.4-6.6 0-3.7.5-5.1 2.4-6.6 2.4-1.9 5.6-2.4 8.6-1.3zm38.4 1.6c1.1 1.1 1.8 2.5 1.5 3-.8 1.2-5.2 1-5.6-.4-.2-.6-1.2-.9-2.1-.5-1.2.4-1.7 1.8-1.7 4.2 0 2.4.5 3.8 1.7 4.2.9.4 1.9.1 2.1-.5.4-1.4 4.8-1.6 5.7-.2 1.1 1.7-3.4 5-6.8 5-6.5 0-9.8-5-7.7-11.6.6-1.9 1.9-3.8 2.8-4.4 3-1.7 8-1.1 10.1 1.2zm-25.7 1.5l.4 2.8 1.2-2.8c.9-2.1 1.8-2.7 4.2-2.7h3v7.5c0 7.3-.1 7.5-2.4 7.5-1.9 0-2.5-.6-2.8-2.8l-.4-2.7-1.4 2.7c-1 2.2-2 2.8-4.7 2.8H300v-15h2.9c2.5 0 3 .5 3.3 2.7zm35.8-.7c0 1.1.3 2 .8 2 .4 0 1.3-.9 2-2 .8-1.3 2.3-2 4.2-2 3.7 0 3.9 1.7.4 4.5l-2.6 2.1 2.1 3.4c2.7 4.4 2.6 5-.2 5-1.6 0-2.8-.9-3.5-2.5-.6-1.4-1.6-2.5-2.2-2.5-.5 0-1 1.1-1 2.5 0 2.1-.5 2.5-3 2.5h-3v-6.8c0-7.6.3-8.2 3.7-8.2 1.6 0 2.3.6 2.3 2z"/><path d="M288.4 289.3c-1 2.7 0 7.2 1.6 7.2 1.1 0 1.5-1.1 1.5-3.9 0-4-2-6.1-3.1-3.3zM345.6 330.9c-.4.6-.1 2.2.7 3.4 1.3 2.1 1.3 2.3-.8 3.4-1.7.7-2.7.7-3.4 0-.8-.8-1.4-.8-2.2 0-.9.9-.3 2.2 2.1 5.3 3.7 4.6 4.8 4.7 7 .4.9-1.7 2.1-2.9 2.8-2.6 2.3.7 1.1-3.4-2.1-7.2-2.3-2.7-3.6-3.6-4.1-2.7zm1.4 10.7c0 .8-.4 1.2-1 .9-.5-.3-1-1-1-1.6 0-.5.5-.9 1-.9.6 0 1 .7 1 1.6zM334.2 343.3c-2.5 2.7-2.9 5.2-.7 4.4.9-.4 2.4.6 3.9 2.6 1.9 2.4 2.8 2.9 3.7 2 .8-.8.5-1.9-1.4-4.5-1.9-2.5-2.3-3.7-1.6-5.1 1.5-2.6-1.3-2.2-3.9.6zM328 352.6c0 3.1-.2 3.5-1.5 2.4-.8-.6-1.9-.9-2.5-.5-1 .6 4.6 9.5 6.1 9.5 1.1 0 1.8-2.6 1.2-4.9-.3-1.2-.1-2.1.6-2.1.6 0 1.1.4 1.1 1 0 .5.7 1 1.5 1s1.5-.6 1.5-1.3c0-1.5-5.8-8.7-7.1-8.7-.5 0-.9 1.6-.9 3.6zM319.6 358.9c-.4.6-.2 1.8.4 2.6.7.8.9 2.3.5 3.2-.6 1.7-.7 1.7-2.1-.1-1-1.5-1.7-1.7-2.5-.9-.8.8-.4 2.2 1.7 5.2 2.9 4.1 5.4 5.3 5.4 2.7 0-.8-.4-1.7-1-2.1-.5-.3-.7-1.2-.3-2.1.5-1.3.7-1.3 2.3.1 4.3 3.9 4.1-.9-.3-6-2.3-2.7-3.6-3.5-4.1-2.6zM310.5 369c-.3.5-.3 2.2.1 3.7.7 2.8.7 2.8-1.4.9-1.9-1.7-2.2-1.7-2.8-.3-.7 1.9 5.3 10 6.7 9.1.5-.3.9-1.9.9-3.7 0-2.4.3-2.8 1.2-1.9 3.6 3.6 3.7-.7.2-5.4-2.7-3.5-3.9-4.1-4.9-2.4zM301.2 379c-2.5 3.3-2.7 4.6-.7 4.2.7-.1 2.5 1.2 3.9 3 3.6 4.6 5.5 2.6 2.1-2.3-1.5-2.3-2.2-4.4-1.8-5.8.8-3-1-2.6-3.5.9zM295.2 385.8c-2.9 2.9-2.8 6.3.3 9.2 2 1.9 3 2.2 4.2 1.4 2.4-1.5 3.9-4.2 2.9-5.1-.5-.4-1.1-.2-1.3.4-.7 2.1-4.1 1.5-4.8-.7-.4-1.2-.1-2.7.5-3.5 2.2-2.6.6-4.1-1.8-1.7zM288.6 392.7c-.3.3-.6 2-.6 3.7 0 2.3-.3 2.7-1.2 1.8-3.7-3.7-3.7 1.2.1 5.7 3.1 3.7 5.6 3.5 4.8-.5-.5-2.6.2-3.1 2-1.3.8.8 1.3.8 1.8-.1.4-.6-.6-2.9-2.1-5.1-3.1-4.5-3.8-5.1-4.8-4.2zM277 405.4c-2.6 2.9-2.4 3.8 2.6 10.5 3.8 5.1 6 5.8 5 1.5-.4-1.4-.1-3.4.5-4.5 1.3-2.4.5-6.1-1.7-8.3-2.2-2.2-3.7-2-6.4.8zm5 2.7c.7 1.1.9 2.8.5 3.7-.6 1.5-.8 1.5-2.1-.2-1.6-2.3-1.9-5.6-.4-5.6.5 0 1.4.9 2 2.1zM268.2 409.2c-.8 1-1 2.6-.6 4.2s.2 2.6-.5 2.6c-.6 0-1.1-.5-1.1-1 0-.6-.7-1-1.5-1s-1.5.5-1.5 1.2c0 1.5 7.8 11.8 9 11.8 1.3 0 1.3-1.7-.1-4.2-1.1-2-.9-2.1 1.9-1.5 2 .4 3.4.1 4.2-.8 1-1.2.9-1.6-.1-1.9-7.4-2-7.4-2-7.9-6.5-.4-3.8-.7-4.2-1.8-2.9z"/></svg>
