<?xml version="1.0" standalone="no"?>
<!DOCTYPE svg PUBLIC "-//W3C//DTD SVG 20010904//EN"
 "http://www.w3.org/TR/2001/REC-SVG-20010904/DTD/svg10.dtd">
<svg version="1.0" xmlns="http://www.w3.org/2000/svg"
 width="512.000000pt" height="512.000000pt" viewBox="0 0 512.000000 512.000000"
 preserveAspectRatio="xMidYMid meet">
<metadata>
Created by potrace 1.11, written by Peter Selinger 2001-2013
</metadata>
<g transform="translate(0.000000,512.000000) scale(0.100000,-0.100000)"
fill="#000000" stroke="none">
<path d="M0 2560 l0 -2560 2033 0 c1284 0 2026 4 2017 10 -12 7 -15 33 -17
112 -1 57 -4 117 -7 133 -5 30 15 137 35 187 19 48 35 41 69 -30 17 -37 40
-83 50 -102 44 -86 50 -218 11 -270 -18 -25 -75 -37 -87 -18 -3 4 -10 6 -15 2
-33 -20 45 -24 517 -24 l514 0 0 1490 c0 1439 -1 1490 -19 1499 -10 6 -20 9
-22 7 -2 -2 -21 -6 -42 -9 -31 -5 -38 -3 -33 8 3 8 1 15 -4 15 -6 0 -10 -7
-10 -15 0 -8 -5 -15 -10 -15 -6 0 -8 12 -5 28 3 15 2 21 -1 15 -8 -17 -34 -17
-34 0 0 7 5 18 11 24 16 16 1 36 -22 30 -29 -8 -30 6 -3 38 25 29 31 59 15 70
-5 3 -11 -5 -13 -17 -2 -12 -9 -23 -17 -26 -10 -3 -12 4 -6 35 7 42 -12 72
-36 57 -9 -5 -10 -2 -6 9 4 10 10 24 13 32 4 9 0 15 -9 15 -23 0 -43 66 -25
87 10 13 11 17 0 21 -9 3 -11 20 -7 65 5 47 4 58 -5 47 -8 -12 -9 -6 -4 23 4
25 3 37 -5 37 -7 0 -9 5 -5 11 4 8 9 7 15 -2 4 -7 11 -10 16 -5 4 4 0 12 -10
17 -23 14 -21 25 6 33 20 6 20 7 5 16 -12 8 -16 20 -12 48 3 26 2 31 -4 18 -8
-19 -9 -19 -15 3 -3 13 -1 24 7 27 17 6 11 61 -8 83 -16 17 -16 19 -1 25 9 3
21 4 26 0 20 -12 7 17 -17 39 l-26 25 23 31 c20 27 21 34 9 41 -8 5 -17 7 -20
5 -3 -2 -7 5 -7 16 -1 11 7 25 18 32 28 18 23 36 -10 35 -31 -1 -27 7 -59
-143 -5 -24 -8 73 -7 250 2 281 5 381 25 720 6 88 10 175 10 193 l0 32 -1788
0 -1789 0 -6 -102 c-4 -57 -10 -185 -13 -285 -4 -100 -10 -180 -14 -178 -4 3
-6 -23 -4 -58 4 -71 -5 -189 -15 -183 -3 2 -7 -8 -7 -22 -3 -87 -4 -90 -21
-88 -12 1 -17 -5 -16 -19 5 -41 -7 -67 -27 -62 -13 3 -20 0 -20 -9 0 -8 -4
-14 -9 -14 -10 0 -20 149 -26 390 -11 413 -16 558 -21 593 l-6 37 -499 0 -499
0 0 -2560z m2822 1988 c-22 -22 -14 -41 13 -34 21 5 27 2 35 -19 25 -66 0
-268 -34 -281 -8 -3 -17 -19 -20 -36 -3 -18 -14 -40 -23 -50 -24 -26 -8 -34
80 -41 42 -3 99 -17 137 -32 78 -31 239 -58 295 -49 22 3 52 13 67 20 15 8 40
14 55 14 15 0 46 9 68 19 22 10 60 18 85 19 44 0 236 64 353 116 32 14 62 26
67 26 5 0 39 21 75 46 l66 46 29 -27 c52 -49 45 -89 -22 -131 -24 -15 -76 -54
-115 -88 -53 -44 -73 -67 -73 -84 0 -22 3 -24 28 -17 15 4 45 8 67 9 38 1 40
-1 43 -30 3 -28 0 -32 -38 -43 -22 -6 -56 -9 -75 -5 -26 5 -40 1 -59 -14 -24
-19 -92 -42 -226 -77 -36 -10 -92 -26 -124 -37 -33 -10 -106 -26 -164 -35 -85
-12 -112 -20 -146 -44 -22 -17 -72 -51 -111 -76 -38 -25 -94 -70 -125 -99 -31
-29 -72 -61 -91 -69 -19 -9 -46 -23 -61 -31 -33 -18 -118 -30 -313 -46 -141
-11 -158 -10 -280 11 -71 13 -184 41 -250 63 -99 33 -133 40 -197 39 -67 0
-86 -5 -154 -37 -53 -25 -82 -34 -92 -28 -19 13 -174 409 -180 462 -3 32 0 48
14 64 41 46 138 108 217 139 94 36 125 38 424 24 159 -7 193 -6 260 10 104 23
226 83 290 142 29 26 66 55 82 65 39 22 79 84 85 133 9 78 18 105 34 105 12 0
13 -3 4 -12z m-1746 -494 c1 -16 -1 -35 -4 -43 -7 -19 -30 39 -24 62 7 27 27
14 28 -19z m3197 -186 c29 -60 0 -87 -143 -128 -102 -29 -243 -26 -248 5 -2
12 7 30 20 42 26 24 168 83 201 83 12 1 36 7 52 15 17 7 46 14 66 14 31 1 39
-3 52 -31z m-2869 -118 c35 -82 42 -121 12 -63 -18 37 -56 135 -56 147 0 17 9
1 44 -84z m-134 -22 c13 -29 31 -71 40 -93 9 -22 34 -67 55 -100 65 -101 117
-214 111 -239 -7 -30 -269 -271 -325 -301 -17 -8 -33 -25 -37 -38 -3 -12 -26
-40 -50 -62 -25 -22 -59 -52 -75 -67 -17 -16 -32 -28 -35 -28 -6 0 -41 -31
-72 -64 -15 -15 -42 -43 -59 -62 -18 -19 -38 -34 -45 -34 -6 0 -19 -6 -27 -14
-44 -39 -99 -59 -195 -69 l-99 -11 -28 33 c-61 73 -129 259 -129 351 0 68 18
127 72 235 48 96 113 148 448 360 102 64 231 148 288 186 56 38 111 69 121 69
13 0 26 -17 41 -52z m2157 -265 c19 -15 42 -28 49 -29 45 -7 150 -184 160
-269 6 -57 -9 -44 -20 18 -4 21 -16 47 -27 58 -10 10 -19 26 -19 34 0 8 -4 15
-8 15 -5 0 2 -37 15 -81 12 -45 23 -88 23 -96 0 -7 6 -13 13 -12 25 3 37 -1
37 -15 0 -8 5 -16 11 -18 6 -2 15 -39 20 -83 35 -295 40 -305 148 -305 39 0
50 -4 59 -22 19 -37 42 -120 42 -155 0 -37 -33 -118 -53 -130 -8 -4 -20 -25
-26 -45 -7 -21 -26 -47 -43 -59 -29 -21 -32 -22 -82 -5 -29 9 -61 16 -71 16
-10 0 -27 7 -37 17 -17 15 -18 12 -18 -95 l0 -112 26 0 c36 0 64 -17 64 -40 0
-26 -56 -65 -74 -51 -19 16 -24 -72 -25 -499 -1 -201 -4 -420 -7 -487 l-7
-122 27 -11 c39 -14 113 -12 171 5 48 15 51 14 101 -10 82 -40 97 -58 102
-119 4 -49 2 -56 -29 -90 -42 -49 -70 -60 -87 -35 -11 16 -26 19 -83 19 -58 0
-69 3 -71 18 -1 9 -2 24 -4 32 -1 8 -2 27 -3 42 -1 20 -5 26 -16 22 -8 -4 -15
-12 -15 -20 0 -19 -24 -18 -40 1 -32 39 -56 4 -70 -103 -9 -70 -24 -94 -54
-90 -17 3 -23 18 -40 100 -12 53 -24 100 -28 104 -4 4 -20 -20 -34 -52 -19
-42 -50 -81 -108 -139 -72 -71 -92 -84 -157 -108 -88 -31 -158 -40 -223 -28
-38 7 -54 5 -86 -10 -43 -21 -158 -26 -220 -10 -28 8 -93 18 -132 20 -4 1 -19
12 -34 26 -15 14 -35 26 -45 26 -11 1 -31 3 -46 4 -16 1 -59 16 -98 33 -38 17
-82 34 -97 37 -33 6 -36 20 -8 35 27 15 195 21 245 9 25 -6 51 -6 70 0 25 8
26 9 8 10 -13 1 -23 6 -23 12 0 6 7 8 15 5 9 -3 23 -1 33 4 9 6 30 14 45 20
l28 10 -6 278 c-4 152 -11 412 -16 577 -4 165 -14 549 -20 854 -11 556 -7 682
22 718 7 8 34 13 71 13 57 0 60 -1 55 -21 -3 -12 -2 -71 3 -131 8 -91 15 -122
40 -176 17 -37 38 -75 47 -84 15 -17 17 -17 34 4 11 11 19 30 19 40 0 11 4 17
8 14 5 -3 19 8 31 24 17 23 27 29 45 24 13 -3 50 -1 82 5 56 11 59 10 113 -22
75 -44 163 -64 195 -44 23 15 23 15 16 -29 -9 -59 9 -58 55 4 59 81 80 158 80
297 0 113 -2 124 -33 197 -19 42 -55 107 -82 142 l-49 66 49 32 c28 18 50 36
50 40 0 13 10 9 47 -19z m458 -433 c0 -26 -24 -38 -102 -53 -49 -9 -43 21 10
55 53 34 92 33 92 -2z m-3708 -746 c-3 -3 -12 -4 -19 -1 -8 3 -5 6 6 6 11 1
17 -2 13 -5z m3473 -439 c0 -8 -4 -15 -10 -15 -5 0 -7 7 -4 15 4 8 8 15 10 15
2 0 4 -7 4 -15z m-1213 -1221 c-3 -3 -12 -4 -19 -1 -8 3 -5 6 6 6 11 1 17 -2
13 -5z m-397 -110 c0 -39 -106 -68 -165 -44 -34 14 -36 12 55 42 51 18 110 18
110 2z"/>
<path d="M2600 2220 l0 -230 470 0 470 0 -2 228 -3 227 -467 3 -468 2 0 -230z
m195 5 l0 -110 -35 0 -35 0 -3 83 c-2 72 -5 83 -20 80 -14 -3 -17 -17 -20 -86
l-3 -83 -32 3 -32 3 -3 113 -3 113 93 -3 93 -3 0 -110z m135 55 c23 0 50 -46
50 -83 0 -50 -12 -71 -50 -87 -35 -15 -84 0 -100 31 -14 25 -12 91 4 111 15
21 56 38 74 32 8 -2 18 -4 22 -4z m393 -17 c9 -9 17 -22 17 -29 0 -19 -36 -27
-60 -12 -17 11 -22 11 -30 -2 -5 -8 -10 -19 -10 -25 0 -5 5 -17 10 -25 8 -12
13 -13 29 -3 22 14 61 6 61 -12 0 -18 -48 -55 -72 -55 -27 0 -74 26 -82 45
-37 97 64 183 137 118z m-263 -5 l0 -23 18 23 c14 17 26 23 48 20 l29 -3 0
-80 c0 -80 0 -80 -28 -83 -21 -3 -29 2 -36 20 l-8 23 -7 -23 c-6 -17 -15 -22
-42 -22 l-34 0 0 85 0 85 30 0 c24 0 30 -4 30 -22z m365 1 l7 -21 15 21 c9 13
25 21 44 21 24 0 29 -4 29 -25 0 -16 -6 -25 -15 -25 -26 0 -28 -27 -6 -63 28
-46 26 -57 -7 -57 -21 0 -33 7 -43 26 l-14 26 -5 -23 c-4 -18 -14 -25 -38 -27
l-32 -3 0 85 0 86 29 0 c21 0 32 -6 36 -21z"/>
<path d="M2884 2216 c-9 -23 0 -51 16 -51 10 0 15 10 15 29 0 32 -21 47 -31
22z"/>
<path d="M3460 1796 c0 -8 5 -18 10 -21 16 -10 12 -19 -17 -32 -19 -9 -30 -10
-40 -2 -23 20 -15 -12 14 -53 l26 -39 24 22 c12 13 23 31 23 40 0 12 5 16 15
13 22 -9 19 3 -12 47 -29 41 -43 49 -43 25z m12 -91 c0 -5 -5 -11 -11 -13 -6
-2 -11 4 -11 13 0 9 5 15 11 13 6 -2 11 -8 11 -13z"/>
<path d="M3347 1682 c-30 -32 -34 -44 -11 -35 10 4 26 -6 44 -28 34 -40 42
-18 9 25 -13 16 -18 33 -14 46 8 27 4 25 -28 -8z"/>
<path d="M3287 1623 c-4 -4 -4 -22 -1 -40 6 -33 -8 -47 -20 -18 -6 17 -26 20
-26 4 0 -14 50 -79 61 -79 5 0 9 16 9 37 0 35 1 36 19 19 32 -29 32 -1 0 42
-33 46 -33 45 -42 35z"/>
<path d="M3200 1516 c0 -8 5 -18 10 -21 8 -5 7 -11 -1 -21 -9 -11 -15 -11 -25
-3 -30 25 -32 1 -3 -39 31 -42 59 -50 38 -10 -15 27 3 47 26 28 28 -23 28 -1
0 40 -29 41 -45 51 -45 26z"/>
<path d="M3110 1401 c0 -42 -1 -43 -18 -28 -31 28 -33 7 -4 -34 31 -45 48 -45
44 0 -2 30 10 42 23 21 7 -12 25 -13 25 -2 0 5 -16 26 -35 48 l-34 39 -1 -44z"/>
<path d="M3012 1327 c-26 -27 -28 -39 -7 -35 8 2 26 -10 39 -27 31 -39 47 -24
17 16 -13 17 -21 39 -18 50 7 25 -5 24 -31 -4z"/>
<path d="M2945 1246 c-31 -47 20 -111 63 -80 12 8 22 22 22 31 0 14 -3 13 -21
-3 -21 -19 -21 -18 -40 5 -18 21 -18 26 -4 41 17 19 19 30 5 30 -5 0 -17 -11
-25 -24z"/>
<path d="M2888 1185 c-3 -4 -4 -23 -1 -43 l6 -37 -22 19 c-11 11 -24 17 -27
13 -7 -7 47 -86 59 -87 4 0 7 19 7 43 1 37 2 40 14 25 13 -18 36 -24 36 -10 0
14 -65 84 -72 77z"/>
<path d="M2789 1078 c-43 -36 -43 -44 1 -102 24 -31 46 -56 51 -56 12 0 11 7
-1 31 -8 14 -7 25 5 42 16 26 12 50 -13 80 -18 20 -23 21 -43 5z m29 -30 c14
-14 16 -58 2 -58 -14 0 -43 48 -35 60 8 13 18 13 33 -2z"/>
<path d="M2680 988 c0 -40 -1 -41 -19 -24 -12 11 -21 13 -25 7 -8 -13 64 -110
82 -110 17 -1 15 14 -3 29 -21 18 -10 25 31 21 47 -4 43 16 -6 29 -38 10 -40
13 -40 50 0 22 -4 40 -10 40 -5 0 -10 -19 -10 -42z"/>
<path d="M2767 654 c-25 -25 52 -32 93 -9 24 14 23 14 -31 15 -31 0 -59 -3
-62 -6z"/>
<path d="M4797 4175 c-4 -22 -7 -53 -7 -69 0 -25 2 -27 16 -15 9 8 13 21 10
35 -4 13 -1 24 7 27 7 2 13 18 14 33 0 16 -1 21 -4 12 -2 -10 -8 -18 -13 -18
-5 0 -10 8 -12 18 -2 9 -7 -1 -11 -23z"/>
<path d="M5060 3040 c0 -5 5 -10 10 -10 6 0 10 5 10 10 0 6 -4 10 -10 10 -5 0
-10 -4 -10 -10z"/>
</g>
</svg>
