<?xml version="1.0" standalone="no"?>
<!DOCTYPE svg PUBLIC "-//W3C//DTD SVG 20010904//EN"
 "http://www.w3.org/TR/2001/REC-SVG-20010904/DTD/svg10.dtd">
<svg version="1.0" xmlns="http://www.w3.org/2000/svg"
 width="512.000000pt" height="512.000000pt" viewBox="0 0 512.000000 512.000000"
 preserveAspectRatio="xMidYMid meet">
<metadata>
Created by potrace 1.14, written by Peter Selinger 2001-2017
</metadata>
<g transform="translate(0.000000,512.000000) scale(0.100000,-0.100000)"
fill="#000000" stroke="none">
<path d="M0 2560 l0 -2560 2560 0 2560 0 0 2560 0 2560 -2560 0 -2560 0 0
-2560z m2838 1785 c5 -53 -5 -83 -28 -90 -12 -4 -22 -19 -26 -42 -4 -20 -17
-52 -30 -71 -13 -19 -24 -39 -24 -43 0 -12 31 -17 130 -23 58 -3 106 -12 152
-30 37 -14 111 -32 166 -40 88 -13 105 -13 153 0 30 9 75 19 101 24 25 5 60
16 77 24 17 9 43 15 58 14 16 -1 39 2 53 6 120 36 287 90 295 96 6 4 30 14 55
22 25 8 72 34 104 57 65 45 82 50 90 24 5 -15 -1 -75 -7 -79 -31 -21 -159
-114 -179 -130 -15 -12 -32 -24 -37 -26 -7 -2 -7 -17 -1 -42 16 -72 -22 -112
-126 -136 -112 -25 -143 -34 -234 -61 -117 -36 -221 -39 -260 -9 -37 29 -64
26 -58 -5 6 -28 -33 -68 -136 -140 -32 -22 -83 -65 -114 -97 -71 -72 -122 -93
-277 -113 -66 -9 -142 -20 -170 -24 -60 -11 -179 2 -267 28 -35 11 -81 22
-103 26 -22 4 -47 13 -55 20 -9 8 -31 14 -50 13 -19 0 -53 6 -76 15 -42 16
-186 24 -217 12 -9 -4 -27 -5 -39 -2 -12 4 -49 -5 -85 -19 -35 -14 -71 -24
-80 -22 -24 4 -54 61 -112 208 -76 195 -76 200 -2 250 24 15 48 38 55 51 6 13
36 36 66 51 109 55 117 56 483 50 268 -4 337 -2 337 8 0 8 -9 11 -25 8 -13 -3
-22 -1 -19 3 3 5 12 9 19 9 23 0 185 88 222 121 36 31 40 32 89 29 40 -2 53
17 22 29 -13 6 -18 10 -12 10 6 1 30 19 52 42 23 22 48 39 55 37 6 -3 13 -22
15 -43z m1232 -400 c0 -20 -50 -32 -60 -14 -13 19 -2 29 31 29 19 0 29 -5 29
-15z m175 -85 c4 -6 2 -17 -4 -24 -6 -7 -8 -15 -5 -19 3 -3 -7 -12 -24 -21
-34 -18 -181 -26 -183 -11 -2 18 47 46 89 52 23 3 47 12 53 19 13 16 65 19 74
4z m-2951 -202 c24 -51 59 -118 78 -148 38 -59 58 -110 58 -145 0 -24 -46 -70
-99 -98 -19 -10 -41 -27 -50 -37 -24 -27 -209 -150 -226 -150 -8 0 -15 -9 -15
-20 0 -13 -7 -20 -18 -20 -11 0 -27 -9 -37 -20 -10 -11 -22 -20 -27 -20 -13 0
-47 -42 -48 -57 0 -7 -7 -13 -15 -13 -16 0 -55 -34 -55 -49 0 -5 -13 -11 -30
-14 -16 -4 -39 -16 -51 -28 -17 -17 -23 -19 -30 -8 -6 10 -9 6 -9 -13 0 -19
-7 -29 -22 -34 -13 -4 -25 -6 -27 -5 -2 2 -8 -4 -13 -13 -5 -9 -22 -16 -38
-16 -23 0 -30 -5 -30 -19 0 -13 -7 -18 -23 -18 -13 0 -35 -12 -50 -27 -40 -40
-50 -36 -117 43 -11 13 -20 38 -20 56 0 17 -5 36 -11 42 -27 27 -2 194 28 186
4 -2 8 0 9 5 2 19 23 59 38 71 9 7 16 18 16 23 0 20 82 149 93 145 12 -4 107
86 107 102 0 6 5 11 10 11 6 0 18 8 28 18 10 9 26 22 34 27 9 6 49 38 89 72
41 34 85 68 99 75 14 7 61 37 105 67 226 156 211 154 269 29z m2204 -296 c40
-59 77 -162 92 -257 14 -82 14 -441 1 -1115 -5 -256 -9 -474 -8 -485 0 -11 0
-156 -1 -321 l-2 -301 -43 -17 c-24 -9 -57 -30 -72 -46 -18 -19 -43 -33 -67
-36 -21 -4 -38 -11 -38 -16 0 -5 -10 -8 -22 -6 -16 2 -22 -2 -20 -13 2 -17
-36 -42 -58 -37 -7 2 -19 -7 -25 -19 -7 -13 -15 -20 -18 -16 -13 12 -7 46 11
60 15 12 8 13 -53 7 -61 -5 -94 -16 -155 -53 -8 -5 -93 -16 -187 -23 -95 -8
-176 -18 -180 -21 -3 -4 2 -14 13 -22 18 -14 15 -15 -31 -13 -48 3 -49 4 -56
38 -4 19 -10 213 -13 430 -4 217 -11 530 -16 695 -14 455 -24 1168 -17 1197
13 50 122 62 131 14 2 -11 9 -54 15 -94 21 -137 108 -275 204 -321 54 -26 75
-28 56 -5 -13 15 -19 59 -12 81 7 17 32 25 93 30 30 2 57 8 58 13 6 17 20 11
18 -7 0 -11 6 -18 17 -18 10 0 24 -8 31 -18 7 -9 18 -17 24 -17 6 0 8 -15 5
-40 -5 -33 -3 -40 11 -40 45 0 137 75 188 154 57 89 82 180 82 301 1 108 -6
137 -61 253 -19 41 -33 75 -31 77 13 13 94 75 98 75 3 0 20 -22 38 -48z m189
-607 c-4 -25 -2 -35 7 -35 15 0 46 -73 46 -107 0 -11 7 -26 15 -33 8 -7 15
-22 15 -34 0 -11 9 -39 19 -61 37 -82 3 -185 -61 -185 -16 0 -42 7 -59 15 -29
15 -29 16 -24 83 3 37 7 137 9 222 1 114 5 154 14 153 7 -2 12 2 12 7 0 6 3
10 6 10 4 0 4 -16 1 -35z m-531 -2086 c3 -6 15 -9 25 -6 10 3 21 1 24 -4 3 -4
12 -6 20 -3 9 4 18 -1 21 -11 8 -20 -14 -65 -32 -65 -6 0 -15 -7 -18 -16 -4
-10 -14 -14 -25 -11 -10 2 -25 1 -32 -4 -8 -4 -19 -3 -26 3 -9 7 -22 6 -47 -6
-42 -20 -56 -20 -56 -1 0 17 -16 20 -25 5 -13 -22 -74 15 -74 45 0 13 69 45
96 45 11 0 26 -7 33 -15 7 -8 16 -12 22 -9 5 3 15 1 23 -6 17 -14 33 6 16 23
-8 8 -6 16 6 29 18 20 39 23 49 7z m-389 -53 c-5 -15 -37 -20 -49 -8 -6 6 -8
15 -4 20 8 13 58 2 53 -12z"/>
<path d="M2598 2454 c-5 -4 -8 -110 -8 -236 l0 -228 475 0 475 0 0 230 0 230
-432 0 c-238 0 -449 3 -468 6 -19 3 -38 2 -42 -2z m192 -224 l0 -110 -30 0
-30 0 0 80 c0 79 0 80 -25 80 -25 0 -25 -1 -25 -81 l0 -80 -32 3 -33 3 -3 94
c-1 52 -1 100 2 108 4 9 29 13 91 13 l85 0 0 -110z m145 44 c26 -10 48 -62 40
-100 -11 -60 -78 -84 -126 -45 -19 15 -24 29 -24 66 0 37 5 51 24 66 24 19 56
24 86 13z m384 -16 c11 -11 18 -25 15 -30 -8 -12 -52 -10 -56 4 -2 6 -12 9
-21 5 -12 -4 -17 -18 -17 -42 0 -24 5 -38 17 -42 9 -4 19 -1 21 5 4 14 48 16
57 2 11 -17 -34 -50 -68 -50 -65 0 -98 50 -77 116 6 19 19 38 28 44 30 17 80
11 101 -12z m-257 -15 l4 -28 12 28 c9 21 18 27 42 27 l30 0 0 -75 c0 -73 -1
-75 -24 -75 -19 0 -25 6 -28 28 l-4 27 -14 -27 c-10 -22 -20 -28 -47 -28 l-33
0 0 75 0 75 29 0 c25 0 30 -5 33 -27z m358 7 c0 -11 3 -20 8 -20 4 0 13 9 20
20 8 13 23 20 42 20 37 0 39 -17 4 -45 l-26 -21 21 -34 c27 -44 26 -50 -2 -50
-16 0 -28 9 -35 25 -6 14 -16 25 -22 25 -5 0 -10 -11 -10 -25 0 -21 -5 -25
-30 -25 l-30 0 0 68 c0 76 3 82 37 82 16 0 23 -6 23 -20z"/>
<path d="M2884 2227 c-10 -27 0 -72 16 -72 11 0 15 11 15 39 0 40 -20 61 -31
33z"/>
<path d="M3456 1811 c-4 -6 -1 -22 7 -34 13 -21 13 -23 -8 -34 -17 -7 -27 -7
-34 0 -8 8 -14 8 -22 0 -9 -9 -3 -22 21 -53 37 -46 48 -47 70 -4 9 17 21 29
28 26 23 -7 11 34 -21 72 -23 27 -36 36 -41 27z m14 -107 c0 -8 -4 -12 -10 -9
-5 3 -10 10 -10 16 0 5 5 9 10 9 6 0 10 -7 10 -16z"/>
<path d="M3342 1687 c-25 -27 -29 -52 -7 -44 9 4 24 -6 39 -26 19 -24 28 -29
37 -20 8 8 5 19 -14 45 -19 25 -23 37 -16 51 15 26 -13 22 -39 -6z"/>
<path d="M3280 1594 c0 -31 -2 -35 -15 -24 -8 6 -19 9 -25 5 -10 -6 46 -95 61
-95 11 0 18 26 12 49 -3 12 -1 21 6 21 6 0 11 -4 11 -10 0 -5 7 -10 15 -10 8
0 15 6 15 13 0 15 -58 87 -71 87 -5 0 -9 -16 -9 -36z"/>
<path d="M3196 1531 c-4 -6 -2 -18 4 -26 7 -8 9 -23 5 -32 -6 -17 -7 -17 -21
1 -10 15 -17 17 -25 9 -8 -8 -4 -22 17 -52 29 -41 54 -53 54 -27 0 8 -4 17
-10 21 -5 3 -7 12 -3 21 5 13 7 13 23 -1 43 -39 41 9 -3 60 -23 27 -36 35 -41
26z"/>
<path d="M3105 1430 c-3 -5 -3 -22 1 -37 7 -28 7 -28 -14 -9 -19 17 -22 17
-28 3 -7 -19 53 -100 67 -91 5 3 9 19 9 37 0 24 3 28 12 19 36 -36 37 7 2 54
-27 35 -39 41 -49 24z"/>
<path d="M3012 1330 c-25 -33 -27 -46 -7 -42 7 1 25 -12 39 -30 36 -46 55 -26
21 23 -15 23 -22 44 -18 58 8 30 -10 26 -35 -9z"/>
<path d="M2952 1262 c-29 -29 -28 -63 3 -92 20 -19 30 -22 42 -14 24 15 39 42
29 51 -5 4 -11 2 -13 -4 -7 -21 -41 -15 -48 7 -4 12 -1 27 5 35 22 26 6 41
-18 17z"/>
<path d="M2886 1193 c-3 -3 -6 -20 -6 -37 0 -23 -3 -27 -12 -18 -37 37 -37
-12 1 -57 31 -37 56 -35 48 5 -5 26 2 31 20 13 8 -8 13 -8 18 1 4 6 -6 29 -21
51 -31 45 -38 51 -48 42z"/>
<path d="M2770 1066 c-26 -29 -24 -38 26 -105 38 -51 60 -58 50 -15 -4 14 -1
34 5 45 13 24 5 61 -17 83 -22 22 -37 20 -64 -8z m50 -27 c7 -11 9 -28 5 -37
-6 -15 -8 -15 -21 2 -16 23 -19 56 -4 56 5 0 14 -9 20 -21z"/>
<path d="M2682 1028 c-8 -10 -10 -26 -6 -42 4 -16 2 -26 -5 -26 -6 0 -11 5
-11 10 0 6 -7 10 -15 10 -8 0 -15 -5 -15 -12 0 -15 78 -118 90 -118 13 0 13
17 -1 42 -11 20 -9 21 19 15 20 -4 34 -1 42 8 10 12 9 16 -1 19 -74 20 -74 20
-79 65 -4 38 -7 42 -18 29z"/>
</g>
</svg>
